<?xml version="1.0" encoding="UTF-8" standalone="no"?>
<svg
   xmlns:dc="http://purl.org/dc/elements/1.1/"
   xmlns:cc="http://creativecommons.org/ns#"
   xmlns:rdf="http://www.w3.org/1999/02/22-rdf-syntax-ns#"
   xmlns:svg="http://www.w3.org/2000/svg"
   xmlns="http://www.w3.org/2000/svg"
   xmlns:sodipodi="http://sodipodi.sourceforge.net/DTD/sodipodi-0.dtd"
   xmlns:inkscape="http://www.inkscape.org/namespaces/inkscape"
   version="1.1"
   xml:space="preserve"
   height="32"
   width="32"
   enable-background="new 0 0 595.275 311.111"
   y="0px"
   x="0px"
   viewBox="0 0 32 32"
   id="svg2"
   inkscape:version="0.91 r13725"
   sodipodi:docname="favicon.svg"
   inkscape:export-filename="/home/nathanael/gallery/img/favicon.png"
   inkscape:export-xdpi="90"
   inkscape:export-ydpi="90"><metadata
     id="metadata14"><rdf:RDF><cc:Work
         rdf:about=""><dc:format>image/svg+xml</dc:format><dc:type
           rdf:resource="http://purl.org/dc/dcmitype/StillImage" /><dc:title></dc:title></cc:Work></rdf:RDF></metadata><defs
     id="defs12" /><sodipodi:namedview
     pagecolor="#ffffff"
     bordercolor="#666666"
     borderopacity="1"
     objecttolerance="10"
     gridtolerance="10"
     guidetolerance="10"
     inkscape:pageopacity="0"
     inkscape:pageshadow="2"
     inkscape:window-width="1366"
     inkscape:window-height="690"
     id="namedview10"
     showgrid="false"
     inkscape:zoom="7.375"
     inkscape:cx="4.6779666"
     inkscape:cy="16"
     inkscape:window-x="0"
     inkscape:window-y="25"
     inkscape:window-maximized="1"
     inkscape:current-layer="svg2" /><rect
     rx="5"
     ry="5"
     height="32"
     width="32"
     y="-.0000052588"
     x="0"
     fill="#0082c9"
     id="rect4" /><path
     style="color:#000000;text-indent:0;text-transform:none;block-progression:tb;fill:#ffffff;fill-opacity:1"
     d="M 4.1139466,5.2853162 C 3.7612699,5.3536195 3.4937711,5.7021001 3.5001102,6.0665627 l 0,19.8659823 c 0,0.410713 0.3785697,0.782139 0.7812469,0.782139 l 23.4373959,0 c 0.402765,-10e-6 0.781229,-0.372248 0.781247,-0.781246 l 0,-19.5588409 C 28.499112,5.7736176 28.027679,5.282727 27.579468,5.286209 Z m 1.1717811,1.7856171 21.4284753,1.25e-5 0,8.9285312 -1.785706,-1.785707 -5.357118,7.142826 -5.357119,-5.357119 -7.1428263,7.142824 -1.785706,0 z m 4.4644445,1.7857061 c -1.479369,0 -2.6785595,1.1991916 -2.6785595,2.6785606 0,1.479368 1.1991905,2.678558 2.6785595,2.678558 1.4793678,0 2.6785598,-1.19919 2.6785598,-2.678558 0,-1.479369 -1.199192,-2.6785606 -2.6785598,-2.6785606 z"
     id="path4"
     inkscape:connector-curvature="0" /></svg>