<?xml version="1.0" encoding="UTF-8" standalone="no"?>
<svg xmlns:rdf="http://www.w3.org/1999/02/22-rdf-syntax-ns#" xmlns="http://www.w3.org/2000/svg" height="16" width="16" version="1.0" xmlns:cc="http://creativecommons.org/ns#" xmlns:dc="http://purl.org/dc/elements/1.1/">
 <path fill-rule="evenodd" fill="#55739a" d="m1.457 1.998c-0.2505 0-0.46091 0.2085-0.46091 0.459v11.08c0 0.259 0.20211 0.461 0.46091 0.461h13.08c0.259 0 0.459-0.202 0.459-0.461v-9.078c0-0.2504-0.208-0.461-0.459-0.461h-6.5409l-2-2h-4.5391zm3.7149 4.002h6.5701c0.126-0.001 0.258 0.1364 0.258 0.3047v5.4763c0 0.115-0.106 0.219-0.219 0.219h-6.5622c-0.1128 0-0.2188-0.104-0.2188-0.219v-5.5622c-0.0018-0.1021 0.0731-0.1997 0.1719-0.2188zm0.3281 0.5v4.5h0.5l2-2 1.5 1.5 1.5-2 0.5 0.5v-2.5h-6zm1.25 0.5c0.4142 0 0.75 0.3358 0.75 0.75s-0.3358 0.75-0.75 0.75-0.75-0.3358-0.75-0.75 0.3358-0.75 0.75-0.75z"/>
</svg>
