<?xml version="1.0" encoding="UTF-8" standalone="no"?>
<!--- @author denim2x <http://denim2x.ml> -->
<svg xmlns:rdf="http://www.w3.org/1999/02/22-rdf-syntax-ns#" xmlns="http://www.w3.org/2000/svg" enable-background="new 0 0 216 146" xml:space="preserve" height="16" viewBox="0 0 25 16" width="25" version="1.1" y="0px" x="0px" xmlns:cc="http://creativecommons.org/ns#" xmlns:dc="http://purl.org/dc/elements/1.1/">
  <!-- @author Freepik <http://www.freepik.com> -->
  <g transform="matrix(0.033 0 0 0.033 8 -1)">
    <path d="M316,211c-41.355,0-75,33.645-75,75s33.645,75,75,75c41.355,0,75-33.645,75-75C391,244.645,357.355,211,316,211z M316,331    c-24.813,0-45-20.187-45-45s20.187-45,45-45s45,20.187,45,45S340.813,331,316,331z"/>
    <path d="M135,151H75c-8.284,0-15,6.716-15,15s6.716,15,15,15h60c8.284,0,15-6.716,15-15S143.284,151,135,151z"/>
    <path d="M497.078,103.944C488.347,95.597,476.954,91,465,91h-49.73l-25.854-51.708C386.876,34.21,381.682,31,376,31H256    c-5.682,0-10.876,3.21-13.416,8.292L216.73,91H120V76c0-24.813-20.187-45-45-45S30,51.187,30,76v17.58    C12.541,99.772,0,116.445,0,136c0,1.9,0,294.65,0,300c0,24.813,20.187,45,45,45h420c11.954,0,23.347-4.597,32.078-12.944    C506.056,459.474,512,448.089,512,436V136C512,123.911,506.056,112.526,497.078,103.944z M265.271,61H366.73l15,30H250.271    L265.271,61z M60,76c0-8.271,6.729-15,15-15s15,6.729,15,15v15H60V76z M30,240.9h158.722C183.728,254.982,181,270.227,181,286    c0,27.732,8.409,53.534,22.806,75H30V240.9z M481,436c0,7.991-7.477,15-16,15H45c-8.271,0-15-6.729-15-15v-45h201.251    c23.186,18.751,52.676,30,84.749,30s61.563-11.249,84.749-30H481V436z M211,286c0-57.897,47.103-105,105-105    c57.897,0,105,47.103,105,105c0,57.897-47.103,105-105,105C258.103,391,211,343.897,211,286z M481,361h-52.806    C442.591,339.534,451,313.732,451,286c0-15.773-2.728-30.918-7.722-45H481V361z M481,211h-52.806    c-24.248-36.154-65.487-60-112.194-60c-46.707,0-87.947,23.846-112.194,60H30v-75c0-8.271,6.729-15,15-15c16.561,0,402.9,0,420,0    c8.523,0,16,7.009,16,15V211z"/>
    <circle cx="436" cy="166" r="15"/>
  </g>
  <path d="m6.0073 12.571h-1.7144v-12.286c0-0.083292-0.026746-0.1519-0.080334-0.20538-0.0536-0.053425-0.122-0.080276-0.2054-0.080276h-1.7144c-0.083288 0-0.1519 0.026741-0.20538 0.080332-0.053482 0.053591-0.080334 0.12209-0.080334 0.20538v12.286h-1.7144c-0.13086 0-0.22017 0.05951-0.26785 0.17853-0.047669 0.11321-0.026746 0.21733 0.062471 0.31267l2.8572 2.8573c0.065541 0.05338 0.13392 0.08012 0.20538 0.08012 0.07737 0 0.14587-0.02675 0.20538-0.08012l2.8484-2.8484c0.059623-0.07135 0.089322-0.14302 0.089322-0.21415 0-0.08361-0.026733-0.1519-0.080334-0.20582-0.053586-0.05349-0.12198-0.08023-0.20538-0.08023z" stroke-width="0"/>
</svg>
