<?xml version="1.0" encoding="UTF-8" standalone="no"?>
<svg xmlns:rdf="http://www.w3.org/1999/02/22-rdf-syntax-ns#" xmlns="http://www.w3.org/2000/svg" height="32" width="32" version="1.1" xmlns:cc="http://creativecommons.org/ns#" xmlns:dc="http://purl.org/dc/elements/1.1/">
 <defs>
  <filter id="a" style="color-interpolation-filters:sRGB" height="1.6" width="1.6" y="-.3" x="-.3">
   <feGaussianBlur stdDeviation="2.5"/>
  </filter>
 </defs>
 <path stroke-linejoin="round" d="m16 6c-5.523 0-10 4.477-10 10s4.477 10 10 10 10-4.477 10-10-4.477-10-10-10zm0 2v16c-4.418 0-8-3.582-8-8s3.582-8 8-8z" filter="url(#a)" stroke="#000" stroke-linecap="round" stroke-width="2"/>
 <path d="m16 6c-5.523 0-10 4.477-10 10s4.477 10 10 10 10-4.477 10-10-4.477-10-10-10zm0 2v16c-4.418 0-8-3.582-8-8s3.582-8 8-8z" fill="#fff"/>
</svg>
